<svg width="60" height="60" viewBox="0 0 60 60" fill="none" xmlns="http://www.w3.org/2000/svg">
<rect width="60" height="60" fill="#45D29F"/>
<path d="M45.4885 28.7568L33.9322 17.2002C33.6023 16.8703 33.1626 16.6892 32.6938 16.6892C32.2245 16.6892 31.7851 16.8705 31.4552 17.2002L30.406 18.2497C30.0763 18.579 29.8948 19.0189 29.8948 19.488C29.8948 19.9568 30.0763 20.4116 30.406 20.7409L37.1478 27.4976H15.7288C14.7631 27.4976 14 28.2536 14 29.2196V30.7033C14 31.6692 14.7631 32.5015 15.7288 32.5015H37.2242L30.4062 39.2959C30.0766 39.6257 29.895 40.0537 29.895 40.5228C29.895 40.9913 30.0766 41.4255 30.4062 41.7551L31.4555 42.8013C31.7853 43.1311 32.2247 43.3109 32.6941 43.3109C33.1629 43.3109 33.6026 43.1288 33.9324 42.7989L45.4888 31.2426C45.8194 30.9117 46.0013 30.4699 46 30.0003C46.001 29.5292 45.8194 29.0872 45.4885 28.7568Z" fill="white"/>
</svg>