<svg width="12" height="12" viewBox="0 0 12 12" fill="none" xmlns="http://www.w3.org/2000/svg">
<path d="M2.55796 4.7461C2.78704 4.7461 3.01208 4.71022 3.22888 4.6411L4.51744 5.92878L5.9286 4.5179L4.64064 3.22882C4.88892 2.45298 4.68492 1.5933 4.10628 1.01486C3.69436 0.602817 3.146 0.375977 2.56376 0.375977C2.23844 0.375977 1.91224 0.449697 1.61956 0.589257C1.5754 0.610297 1.54448 0.651337 1.5362 0.699457C1.52816 0.747577 1.54364 0.796417 1.578 0.831097L2.93376 2.18718C3.0338 2.28714 3.089 2.41986 3.089 2.56074C3.089 2.70198 3.03372 2.83446 2.93376 2.93442C2.7346 3.13418 2.3864 3.13418 2.18688 2.9339L0.830636 1.57818C0.795876 1.54342 0.745916 1.52818 0.699156 1.53626C0.650916 1.54454 0.609996 1.57546 0.588956 1.61962C0.190636 2.45434 0.361356 3.45394 1.0146 4.1067C1.42676 4.51886 1.97484 4.7461 2.55796 4.7461Z" fill="#1D91E3"/>
<path d="M9.44287 7.25404C9.21331 7.25404 8.98791 7.29016 8.77095 7.35944L7.34571 5.93408L5.93359 7.34596L7.35923 8.77156C7.11147 9.54716 7.31531 10.4066 7.89359 10.9854C8.30563 11.3974 8.85399 11.6243 9.43619 11.6243C9.76167 11.6243 10.0878 11.5504 10.3805 11.4109C10.4247 11.3899 10.4556 11.3488 10.4639 11.3007C10.4722 11.2526 10.4564 11.2037 10.4221 11.1691L9.06635 9.81272C8.96651 9.713 8.91135 9.58052 8.91123 9.43964C8.91123 9.29852 8.96639 9.16604 9.06659 9.06596C9.26639 8.86604 9.61383 8.86616 9.81323 9.06608L11.1692 10.4218C11.2038 10.4563 11.2522 10.4717 11.3008 10.4637C11.349 10.4553 11.39 10.4245 11.411 10.3804C11.8094 9.54576 11.6388 8.54628 10.9855 7.8934C10.5735 7.48128 10.0255 7.25404 9.44287 7.25404Z" fill="#1D91E3"/>
<path d="M8.8623 4.03977C8.8623 4.03977 9.09818 4.24637 9.29266 4.14985C9.51246 4.03925 10.1317 4.64973 10.3293 4.79257C10.3299 4.79305 10.3313 4.79305 10.3336 4.79417L10.2256 4.90265C10.0829 5.04365 10.0831 5.27389 10.2252 5.41513C10.3675 5.55677 10.5962 5.55665 10.7385 5.41513L11.5936 4.56113C11.7349 4.41913 11.735 4.18929 11.5933 4.04753C11.4522 3.90625 11.222 3.90625 11.0804 4.04765L10.938 4.18993C10.82 4.02741 10.6239 3.75041 10.6488 3.65865C10.7531 3.25677 9.93378 2.30749 9.93378 2.30749C7.89906 0.273172 6.53998 0.319412 5.89342 0.541732C5.6339 0.631012 5.68202 0.687572 5.95158 0.735052C7.91318 1.07745 8.1565 2.23425 7.82398 2.68057C7.6961 2.85289 7.88262 3.06093 7.88262 3.06093L7.95274 3.13057L4.64062 6.44209C4.68554 6.46917 4.72919 6.49997 4.76767 6.53857L5.32482 7.09521C5.36266 7.13317 5.39358 7.17649 5.42042 7.22137L8.73258 3.90973L8.8623 4.03977Z" fill="#1D91E3"/>
<path d="M4.5451 6.76111C4.42286 6.63875 4.21482 6.63087 4.08406 6.74443L0.403299 10.0443C0.271939 10.1578 0.264619 10.3508 0.387099 10.4733L1.38966 11.4752C1.51222 11.5976 1.70494 11.5908 1.81826 11.4602L5.11914 7.77831C5.23206 7.64767 5.2249 7.44035 5.1023 7.31803L4.5451 6.76111Z" fill="#1D91E3"/>
</svg>