<svg width="100" height="33" viewBox="0 0 100 33" fill="none" xmlns="http://www.w3.org/2000/svg">
<rect x="1.12891" y="1.03601" width="98.3709" height="31.1773" rx="4.5" fill="#169CEF" stroke="white"/>
<path d="M21.3639 16.1883L13.5396 8.34299L23.4944 14.0578L21.3639 16.1883ZM11.4982 7.88184C11.037 8.12291 10.729 8.56251 10.729 9.13314V24.7778C10.729 25.3484 11.0376 25.788 11.4982 26.0291L20.5953 16.9535L11.4982 7.88184ZM26.5716 15.8797L24.4837 14.671L22.1546 16.9575L24.4837 19.2439L26.6142 18.0352C27.2523 17.5287 27.2523 16.3868 26.5716 15.8797ZM13.5402 25.5725L23.495 19.8577L21.3645 17.7272L13.5402 25.5725Z" fill="white"/>
<path d="M53.7898 13.8654C52.2983 13.8654 51.066 15.0614 51.066 16.7013C51.066 18.3278 52.2854 19.5372 53.7899 19.5372C55.2943 19.5372 56.5136 18.3411 56.5136 16.7013C56.5136 15.0614 55.2943 13.8654 53.7898 13.8654ZM53.7898 18.4087C52.9725 18.4087 52.2595 17.6961 52.2595 16.6886C52.2595 15.6672 52.973 14.9686 53.7898 14.9686C54.6065 14.9686 55.32 15.6672 55.32 16.6886C55.32 17.6961 54.6065 18.4087 53.7898 18.4087ZM47.8624 13.8654C46.3578 13.8654 45.1385 15.0614 45.1385 16.7013C45.1385 18.3278 46.3578 19.5372 47.8624 19.5372C49.3668 19.5372 50.5861 18.3411 50.5861 16.7013C50.5861 15.0614 49.3668 13.8654 47.8622 13.8654H47.8624ZM47.8624 18.4087C47.0449 18.4087 46.3321 17.6961 46.3321 16.6886C46.3321 15.6672 47.0456 14.9686 47.8624 14.9686C48.6797 14.9686 49.3926 15.6672 49.3926 16.6886C49.3926 17.6961 48.6919 18.4087 47.8624 18.4087ZM40.8194 14.7391V15.9352H43.5689C43.4908 16.6071 43.2709 17.1044 42.9464 17.4406C42.5445 17.8571 41.9219 18.3144 40.8194 18.3144C39.12 18.3144 37.8105 16.8898 37.8105 15.129C37.8105 13.3682 39.1207 11.9167 40.8194 11.9167C41.74 11.9167 42.4019 12.2931 42.8947 12.7772L43.7115 11.9301C43.0238 11.2449 42.1033 10.7208 40.8194 10.7208C38.4974 10.7208 36.5518 12.6962 36.5518 15.1022C36.5518 17.5083 38.4974 19.4837 40.8194 19.4837C42.0774 19.4837 43.0116 19.0539 43.7637 18.247C44.5289 17.454 44.7624 16.3382 44.7624 15.4379C44.7624 15.1558 44.7367 14.9003 44.6974 14.6851L40.8194 14.7391ZM69.6396 15.6664C69.4189 15.0347 68.7189 13.8654 67.3176 13.8654C65.9164 13.8654 64.7623 15.008 64.7623 16.7013C64.7623 18.287 65.9164 19.5372 67.4474 19.5372C68.6925 19.5372 69.406 18.7442 69.7041 18.287L68.7835 17.642C68.4719 18.1126 68.0571 18.4213 67.4474 18.4213C66.8377 18.4213 66.41 18.1392 66.1371 17.561L69.7558 15.9887L69.6396 15.6664ZM65.9558 16.6211C65.9301 15.5321 66.7732 14.9678 67.3693 14.9678C67.8493 14.9678 68.2384 15.2098 68.3809 15.5728L65.9558 16.6211ZM63.0115 19.3492H64.205V11.043H63.0115V19.3492ZM61.0664 14.4972H61.0276C60.7554 14.1609 60.2496 13.8654 59.6006 13.8654C58.2387 13.8654 57.0065 15.1156 57.0065 16.7013C57.0065 18.287 58.2516 19.5239 59.6006 19.5239C60.2489 19.5239 60.7548 19.2283 61.0276 18.8786H61.0664V19.2818C61.0664 20.3708 60.5083 20.9483 59.6135 20.9483C58.8871 20.9483 58.4329 20.3975 58.2516 19.9402L57.2143 20.3975C57.5122 21.1502 58.3038 22.0775 59.6135 22.0775C61.0141 22.0775 62.1947 21.2172 62.1947 19.1341V14.04H61.0664V14.4972ZM59.7044 18.4087C58.8871 18.4087 58.2 17.6961 58.2 16.702C58.2 15.7079 58.8877 14.9818 59.7044 14.9818C60.509 14.9818 61.1573 15.7079 61.1573 16.702C61.1567 17.6827 60.5083 18.4087 59.7044 18.4087ZM75.2039 11.0431H72.3504V19.3492H73.544V16.2039H75.2039C76.5271 16.2039 77.8238 15.209 77.8238 13.6235C77.8238 12.0378 76.5271 11.043 75.2039 11.043V11.0431ZM75.2425 15.0488H73.5562V12.1988H75.2425C76.1244 12.1988 76.6432 12.9649 76.6432 13.6233C76.6309 14.2685 76.1251 15.0488 75.2425 15.0488ZM82.5843 13.852C81.7282 13.852 80.8332 14.2419 80.4701 15.129L81.521 15.5862C81.7546 15.129 82.1694 14.9812 82.6107 14.9812C83.2333 14.9812 83.8558 15.3709 83.8687 16.0561V16.1371C83.648 16.0027 83.1945 15.8142 82.6236 15.8142C81.4824 15.8142 80.3275 16.4727 80.3275 17.6827C80.3275 18.7984 81.2617 19.5105 82.2991 19.5105C83.1035 19.5105 83.5442 19.1341 83.8164 18.6908H83.8552V19.336H85.0092V16.1503C84.9965 14.6856 83.9461 13.8519 82.5843 13.8519V13.852ZM82.4417 18.3953C82.0526 18.3953 81.5075 18.1934 81.5075 17.6967C81.5075 17.0515 82.1817 16.8096 82.7655 16.8096C83.2841 16.8096 83.5307 16.9306 83.8552 17.0917C83.7643 17.8579 83.1288 18.3953 82.4417 18.3953ZM89.1731 14.0407L87.8111 17.6292H87.7724L86.359 14.0406H85.0751L87.202 19.0671L85.9956 21.8763H87.2406L90.496 14.0406H89.1729L89.1731 14.0407ZM78.4856 19.3492H79.6792V11.043H78.4856V19.3492Z" fill="white"/>
</svg>