<svg width="100" height="33" viewBox="0 0 100 33" fill="none" xmlns="http://www.w3.org/2000/svg">
<rect x="0.787109" y="1.03601" width="98.3709" height="31.1773" rx="4.5" fill="#169CEF" stroke="white"/>
<path d="M36.9893 19.9192L39.5983 12.905H41.0262L43.5965 19.9192H42.2508L41.549 17.9384H39.0658L38.3591 19.9192H36.9893ZM39.395 16.9719H41.215C40.6341 15.1314 40.3356 14.1809 40.3195 14.1203L39.395 16.9719Z" fill="white"/>
<path d="M44.2306 22.1057V14.6609H45.3197L45.4552 15.3978C45.6294 15.1203 45.8602 14.9065 46.1474 14.7566C46.4378 14.6035 46.7605 14.527 47.1155 14.527C47.5511 14.527 47.9335 14.6466 48.2626 14.8858C48.595 15.125 48.8467 15.452 49.0178 15.8667C49.1888 16.2781 49.2743 16.7438 49.2743 17.2637C49.2743 18.0771 49.0742 18.7406 48.6741 19.2541C48.2772 19.7645 47.7383 20.0197 47.0574 20.0197C46.7218 20.0197 46.4168 19.9543 46.1425 19.8235C45.8715 19.6895 45.644 19.5093 45.46 19.2828C45.4858 19.7422 45.4988 20.0005 45.4988 20.0579V22.0435L44.2306 22.1057ZM46.7863 19.0628C47.1639 19.0628 47.4607 18.9065 47.677 18.5939C47.8964 18.2813 48.0061 17.8347 48.0061 17.2542C48.0061 16.6641 47.8964 16.2207 47.677 15.9241C47.4575 15.6274 47.1526 15.4791 46.7621 15.4791C45.9231 15.4791 45.4988 16.0437 45.4891 17.1728C45.4891 17.8235 45.5972 18.302 45.8134 18.6082C46.0328 18.9112 46.3571 19.0628 46.7863 19.0628Z" fill="white"/>
<path d="M50.3102 22.1057V14.6609H51.3993L51.5348 15.3978C51.709 15.1203 51.9398 14.9065 52.227 14.7566C52.5174 14.6035 52.8401 14.527 53.1951 14.527C53.6307 14.527 54.0131 14.6466 54.3422 14.8858C54.6746 15.125 54.9263 15.452 55.0974 15.8667C55.2684 16.2781 55.3539 16.7438 55.3539 17.2637C55.3539 18.0771 55.1538 18.7406 54.7537 19.2541C54.3568 19.7645 53.8179 20.0197 53.137 20.0197C52.8014 20.0197 52.4964 19.9543 52.2221 19.8235C51.9511 19.6895 51.7236 19.5093 51.5396 19.2828C51.5654 19.7422 51.5783 20.0005 51.5783 20.0579V22.0435L50.3102 22.1057ZM52.8659 19.0628C53.2435 19.0628 53.5403 18.9065 53.7565 18.5939C53.976 18.2813 54.0857 17.8347 54.0857 17.2542C54.0857 16.6641 53.976 16.2207 53.7565 15.9241C53.5371 15.6274 53.2322 15.4791 52.8417 15.4791C52.0027 15.4791 51.5783 16.0437 51.5687 17.1728C51.5687 17.8235 51.6768 18.302 51.893 18.6082C52.1124 18.9112 52.4367 19.0628 52.8659 19.0628Z" fill="white"/>
<path d="M58.2533 19.991C57.8887 19.991 57.5853 19.9495 57.3433 19.8666C57.1045 19.7804 56.9157 19.6449 56.777 19.4599C56.6382 19.2749 56.5414 19.0548 56.4866 18.7996C56.4317 18.5444 56.4043 18.227 56.4043 17.8475V12.7232L57.6725 12.6418V17.8235C57.6725 18.2956 57.7289 18.6162 57.8419 18.7852C57.9548 18.9511 58.1743 19.034 58.5002 19.034C58.6615 19.034 58.8664 19.0165 59.1149 18.9814L59.1488 19.8761C59.1456 19.8761 59.1052 19.8841 59.0278 19.9001C58.9536 19.916 58.881 19.9288 58.81 19.9383C58.7422 19.9511 58.6551 19.9623 58.5486 19.9718C58.4421 19.9846 58.3437 19.991 58.2533 19.991Z" fill="white"/>
<path d="M62.208 20.0197C61.3528 20.0197 60.6864 19.7772 60.2089 19.2924C59.7345 18.8044 59.4973 18.1314 59.4973 17.2733C59.4973 16.4376 59.7216 15.7726 60.1701 15.2781C60.6187 14.7837 61.2302 14.5349 62.0047 14.5318C62.7372 14.5318 63.3051 14.7582 63.7085 15.2112C64.1151 15.6641 64.3184 16.2654 64.3184 17.015C64.3184 17.0692 64.3168 17.1569 64.3136 17.2781C64.3136 17.3993 64.3136 17.4886 64.3136 17.546H60.7752C60.7881 18.0373 60.9236 18.4184 61.1818 18.6896C61.4432 18.9575 61.8014 19.0915 62.2564 19.0915C62.8372 19.0915 63.3955 18.9415 63.9312 18.6417L64.1103 19.5316C63.5778 19.857 62.9437 20.0197 62.208 20.0197ZM60.7994 16.7566H63.1228C63.1228 16.3292 63.0244 16.0006 62.8275 15.771C62.6307 15.5413 62.358 15.4265 62.0095 15.4265C61.6836 15.4265 61.4077 15.5381 61.1818 15.7614C60.9591 15.9847 60.8317 16.3164 60.7994 16.7566Z" fill="white"/>
<path d="M70.0882 20.0149C69.2331 20.0149 68.4667 19.8203 67.789 19.4312L68.1085 18.4025C68.4118 18.5683 68.7409 18.7023 69.0959 18.8044C69.4541 18.9065 69.8026 18.9575 70.1414 18.9575C70.5577 18.9575 70.8723 18.8698 71.0853 18.6943C71.2983 18.5157 71.4048 18.2605 71.4048 17.9288C71.4048 17.4886 71.1079 17.184 70.5142 17.015C70.4722 17.0022 70.3544 16.9687 70.1608 16.9145C69.9672 16.8571 69.7849 16.8028 69.6138 16.7518C69.446 16.6976 69.325 16.6561 69.2508 16.6274C68.2988 16.2957 67.8229 15.6769 67.8229 14.771C67.8229 14.1362 68.0504 13.6466 68.5054 13.3021C68.9636 12.9576 69.5703 12.7854 70.3254 12.7854C71.1805 12.7854 71.9179 12.9592 72.5375 13.3069L72.1405 14.2542C71.5081 13.9736 70.9208 13.8332 70.3786 13.8332C69.9882 13.8332 69.6929 13.9018 69.4928 14.0389C69.296 14.1729 69.1911 14.3978 69.1782 14.7136C69.1782 15.1027 69.3734 15.3563 69.7639 15.4743C69.8413 15.503 70.0317 15.5652 70.3351 15.6609C70.6384 15.7566 70.8352 15.8188 70.9256 15.8475C71.5742 16.058 72.0373 16.3196 72.3148 16.6322C72.5955 16.9448 72.7359 17.3802 72.7359 17.9384C72.7359 18.605 72.4971 19.1186 72.0195 19.479C71.5419 19.8363 70.8982 20.0149 70.0882 20.0149Z" fill="white"/>
<path d="M75.8628 19.991C75.5014 19.991 75.1997 19.9495 74.9577 19.8666C74.7189 19.7804 74.5317 19.6465 74.3962 19.4647C74.2607 19.2828 74.1638 19.0691 74.1058 18.8235C74.0509 18.5747 74.0235 18.2685 74.0235 17.9049V15.4217H73.1522L73.2006 14.7423L74.1106 14.6609L74.5172 13.2351L75.2917 13.2303V14.6609H76.6131V15.4217H75.2917V17.9288C75.2917 18.3275 75.3498 18.6114 75.4659 18.7805C75.5821 18.9495 75.7967 19.034 76.1097 19.034C76.2936 19.034 76.4905 19.0181 76.7002 18.9862L76.7341 19.8857C76.7277 19.8857 76.6873 19.8937 76.6131 19.9096C76.5421 19.9224 76.4727 19.9335 76.405 19.9431C76.3404 19.9559 76.2565 19.967 76.1533 19.9766C76.05 19.9862 75.9532 19.991 75.8628 19.991Z" fill="white"/>
<path d="M79.8998 19.0675C80.329 19.0675 80.6517 18.9128 80.8679 18.6034C81.0841 18.294 81.1922 17.8507 81.1922 17.2733C81.1922 16.6896 81.0841 16.2446 80.8679 15.9384C80.6517 15.6322 80.3257 15.4791 79.8901 15.4791C79.4609 15.4791 79.1366 15.6338 78.9172 15.9432C78.701 16.2494 78.5929 16.6944 78.5929 17.2781C78.5929 17.8523 78.7026 18.294 78.922 18.6034C79.1414 18.9128 79.4674 19.0675 79.8998 19.0675ZM79.8659 20.0197C79.0785 20.0197 78.4589 19.7677 78.0072 19.2637C77.5554 18.7597 77.3295 18.0963 77.3295 17.2733C77.3295 16.4249 77.5554 15.7566 78.0072 15.2686C78.4589 14.7774 79.0963 14.5318 79.9191 14.5318C80.713 14.5318 81.3342 14.7821 81.7827 15.2829C82.2345 15.7805 82.4604 16.444 82.4604 17.2733C82.4604 18.1122 82.2329 18.7805 81.7779 19.2781C81.3229 19.7725 80.6855 20.0197 79.8659 20.0197Z" fill="white"/>
<path d="M83.5011 19.9192V14.6609H84.566L84.7305 15.4647C85.079 14.9129 85.5841 14.637 86.2456 14.637C86.3844 14.637 86.4973 14.6434 86.5844 14.6562L86.5651 15.704C86.436 15.6848 86.3021 15.6753 86.1633 15.6753C85.6954 15.6753 85.3453 15.7981 85.1129 16.0437C84.8838 16.2893 84.7693 16.6306 84.7693 17.0676V19.9192H83.5011Z" fill="white"/>
<path d="M89.7694 20.0197C88.9143 20.0197 88.2479 19.7772 87.7703 19.2924C87.296 18.8044 87.0588 18.1314 87.0588 17.2733C87.0588 16.4376 87.2831 15.7726 87.7316 15.2781C88.1802 14.7837 88.7917 14.5349 89.5661 14.5318C90.2987 14.5318 90.8666 14.7582 91.27 15.2112C91.6766 15.6641 91.8799 16.2654 91.8799 17.015C91.8799 17.0692 91.8783 17.1569 91.875 17.2781C91.875 17.3993 91.875 17.4886 91.875 17.546H88.3367C88.3496 18.0373 88.4851 18.4184 88.7433 18.6896C89.0046 18.9575 89.3628 19.0915 89.8178 19.0915C90.3987 19.0915 90.957 18.9415 91.4926 18.6417L91.6717 19.5316C91.1393 19.857 90.5052 20.0197 89.7694 20.0197ZM88.3609 16.7566H90.6843C90.6843 16.3292 90.5859 16.0006 90.389 15.771C90.1922 15.5413 89.9195 15.4265 89.571 15.4265C89.2451 15.4265 88.9691 15.5381 88.7433 15.7614C88.5206 15.9847 88.3931 16.3164 88.3609 16.7566Z" fill="white"/>
<g clip-path="url(#clip0)">
<path d="M23.4463 6.96362H11.7121C9.46251 6.96362 7.63232 8.79381 7.63232 11.0434V22.7776C7.63232 25.0272 9.46251 26.8574 11.7121 26.8574H23.4463C25.6959 26.8574 27.5261 25.0272 27.5261 22.7776V11.0434C27.5261 8.79381 25.6959 6.96362 23.4463 6.96362ZM13.7578 22.2925C13.5781 22.6038 13.2509 22.7779 12.9149 22.778C12.7502 22.778 12.5834 22.7361 12.4308 22.648C11.967 22.3803 11.8075 21.785 12.0753 21.3212L12.2663 20.9903H14.5096L13.7578 22.2925ZM11.9258 20.2132C11.3902 20.2132 10.9544 19.7774 10.9544 19.2418C10.9544 18.7062 11.3902 18.2704 11.9258 18.2704H13.8366L16.4575 13.7308L15.7472 12.5005C15.4794 12.0367 15.6389 11.4414 16.1027 11.1736H16.1028C16.5666 10.9058 17.1619 11.0653 17.4297 11.5292L17.5792 11.7881L17.7287 11.5292C17.9966 11.0653 18.5919 10.9058 19.0556 11.1736C19.2803 11.3034 19.441 11.5128 19.5082 11.7635C19.5754 12.0141 19.5409 12.2759 19.4111 12.5006L16.0799 18.2704H18.1811L19.3028 20.2132H11.9258ZM23.2326 20.2132H22.4434L23.0831 21.3211C23.3509 21.7849 23.1914 22.3802 22.7276 22.648C22.5779 22.7344 22.4117 22.7786 22.2434 22.7786C22.159 22.7786 22.0742 22.7675 21.9904 22.7451C21.7398 22.6779 21.5303 22.5171 21.4006 22.2924L18.0278 16.4506L19.1494 14.5079L21.3218 18.2704H23.2326C23.7682 18.2704 24.204 18.7062 24.204 19.2418C24.204 19.7774 23.7682 20.2132 23.2326 20.2132Z" fill="white"/>
</g>
<defs>
<clipPath id="clip0">
<rect x="7.63232" y="6.96362" width="19.8937" height="19.8937" fill="white"/>
</clipPath>
</defs>
</svg>