<svg width="30" height="30" viewBox="0 0 30 30" fill="none" xmlns="http://www.w3.org/2000/svg">
<path d="M23.426 11.0253C23.7883 11.0253 24.138 11.0805 24.4671 11.1827L27.466 8.18383L26.0683 6.78613L21.8291 11.0253H23.426Z" fill="#1698E8"/>
<path d="M29.4852 10.203L28.709 9.42676L25.9932 12.1426C26.5809 12.7712 26.9417 13.6145 26.9417 14.5409V15.2325L29.4852 12.6889C30.1717 12.0025 30.1717 10.8895 29.4852 10.203Z" fill="#1698E8"/>
<path d="M24.8254 5.54326L19.797 0.514863C19.1105 -0.171621 17.9975 -0.171621 17.3111 0.514863L6.80054 11.0254H19.3432L24.8254 5.54326Z" fill="#1698E8"/>
<path d="M4.61328 18.3553H7.29113V20.3319H4.61328V18.3553Z" fill="#1698E8"/>
<path d="M23.426 12.7833H1.75781C0.786973 12.7833 0 13.5702 0 14.5411V28.2422C0 29.2131 0.786973 30 1.75781 30H23.426C24.3968 30 25.1838 29.2131 25.1838 28.2422V14.5411C25.1838 13.5702 24.3968 12.7833 23.426 12.7833ZM2.85551 16.5975H9.04898V22.0898H2.85551V16.5975ZM6.2751 26.1857H2.80084V24.4279H6.2751V26.1857ZM11.6443 26.1857H8.17008V24.4279H11.6443V26.1857ZM17.0137 26.1857H13.5394V24.4279H17.0137V26.1857ZM22.383 26.1857H18.9087V24.4279H22.383V26.1857Z" fill="#1698E8"/>
</svg>