<svg width="27" height="27" viewBox="0 0 27 27" fill="none" xmlns="http://www.w3.org/2000/svg">
<g clip-path="url(#clip0)">
<path d="M13.504 1.30279e-06C10.8331 -0.00117168 8.22189 0.789766 6.00056 2.27278C3.77923 3.75579 2.0476 5.86425 1.02468 8.3315C0.00176127 10.7987 -0.266489 13.5139 0.253856 16.1336C0.774201 18.7533 2.05977 21.1599 3.94795 23.0489C5.83614 24.9379 8.24213 26.2245 10.8616 26.746C13.4811 27.2675 16.1964 27.0005 18.6641 25.9786C21.1318 24.9568 23.241 23.2261 24.725 21.0054C26.209 18.7847 27.0011 16.1739 27.0011 13.503C27.0018 11.73 26.6533 9.97427 25.9754 8.33605C25.2974 6.69783 24.3034 5.20923 23.05 3.95529C21.7966 2.70134 20.3084 1.70663 18.6705 1.02797C17.0326 0.349309 15.277 1.13166e-06 13.504 1.30279e-06ZM13.504 4.03844C14.3872 4.03844 15.2505 4.30033 15.9849 4.79099C16.7192 5.28166 17.2915 5.97906 17.6295 6.79501C17.9675 7.61095 18.0559 8.5088 17.8836 9.375C17.7113 10.2412 17.286 11.0369 16.6615 11.6614C16.037 12.2859 15.2414 12.7112 14.3752 12.8835C13.509 13.0557 12.6111 12.9673 11.7952 12.6293C10.9792 12.2914 10.2818 11.719 9.79117 10.9847C9.3005 10.2504 9.03861 9.38702 9.03861 8.50385C9.03861 7.31955 9.50907 6.18375 10.3465 5.34632C11.1839 4.5089 12.3197 4.03844 13.504 4.03844ZM13.504 23.4716C11.1392 23.4761 8.85074 22.6347 7.05201 21.0995C6.84324 20.9203 6.67537 20.6985 6.55976 20.4488C6.44415 20.1992 6.3835 19.9276 6.3819 19.6525C6.38267 19.0592 6.50061 18.4718 6.72893 17.9241C6.95726 17.3765 7.29148 16.8793 7.71242 16.4611C8.13337 16.0429 8.63274 15.7119 9.1819 15.4872C9.73106 15.2625 10.3192 15.1484 10.9125 15.1515H16.1074C16.7001 15.1484 17.2877 15.2626 17.8362 15.4874C18.3847 15.7123 18.8833 16.0435 19.3033 16.4618C19.7233 16.8801 20.0564 17.3774 20.2834 17.925C20.5105 18.4726 20.6269 19.0597 20.6261 19.6525C20.6265 19.928 20.5667 20.2002 20.451 20.4501C20.3352 20.7 20.1663 20.9216 19.956 21.0995C18.1558 22.6361 15.8649 23.4775 13.4981 23.4716H13.504Z" fill="#1698E8"/>
</g>
<defs>
<clipPath id="clip0">
<rect width="27" height="27" fill="white"/>
</clipPath>
</defs>
</svg>