<svg width="24" height="16" viewBox="0 0 24 16" fill="none" xmlns="http://www.w3.org/2000/svg">
<g clip-path="url(#clip0)">
<path d="M15.9087 8.11904L23.9998 13.079V2.94995L15.9087 8.11904Z" fill="#A7A7A9"/>
<path d="M0 2.94995V13.079L8.09109 8.11904L0 2.94995Z" fill="#A7A7A9"/>
<path d="M22.5 0H1.5C0.75 0 0.1575 0.540909 0.046875 1.23773L12 8.87409L23.9531 1.23773C23.8425 0.540909 23.25 0 22.5 0Z" fill="#A7A7A9"/>
<path d="M14.535 9.0001L12.4125 10.3537C12.2898 10.4314 12.1465 10.4728 12 10.4728C11.8535 10.4728 11.7102 10.4314 11.5875 10.3537L9.465 8.99646L0.046875 14.7728C0.162656 15.4637 0.75375 16.0001 1.5 16.0001H22.5C23.2453 16.0001 23.8364 15.4633 23.9531 14.7728L14.535 9.0001Z" fill="#A7A7A9"/>
</g>
<defs>
<clipPath id="clip0">
<rect width="24" height="16" fill="white"/>
</clipPath>
</defs>
</svg>