<svg width="30" height="30" viewBox="0 0 30 30" fill="none" xmlns="http://www.w3.org/2000/svg">
<g clip-path="url(#clip0)">
<path d="M14.9999 7.88232L25.6992 16.7028C25.6992 16.7153 25.7024 16.7336 25.7086 16.7585C25.7148 16.7833 25.718 16.8013 25.718 16.8141V25.7458C25.718 26.0683 25.6001 26.3477 25.3644 26.5831C25.1287 26.8186 24.8496 26.937 24.5271 26.937H17.3819V19.7915H12.6178V26.9373H5.47272C5.15023 26.9373 4.87076 26.8191 4.63541 26.5831C4.39968 26.348 4.28138 26.0683 4.28138 25.7458V16.8141C4.28138 16.7645 4.28816 16.7271 4.30015 16.7028L14.9999 7.88232Z" fill="#1698E8"/>
<path d="M0.206964 14.693L4.28185 11.3064V3.71429C4.28185 3.54073 4.33764 3.398 4.44961 3.28629C4.56067 3.17471 4.7034 3.11892 4.87735 3.11892H8.44999C8.62375 3.11892 8.76642 3.17471 8.87819 3.28629C8.98971 3.398 9.04543 3.5408 9.04543 3.71429V7.3428L13.5857 3.54666C13.9822 3.22411 14.4537 3.06287 14.9996 3.06287C15.5454 3.06287 16.0168 3.22411 16.4137 3.54666L29.7932 14.693C29.9173 14.7921 29.9852 14.9254 29.9979 15.0929C30.0105 15.2603 29.9671 15.4065 29.8677 15.5305L28.7141 16.9075C28.6147 17.0191 28.4846 17.0873 28.3233 17.1123C28.1743 17.1248 28.0254 17.0812 27.8765 16.982L15 6.24492L2.12331 16.982C2.02385 17.0685 1.89383 17.1117 1.73252 17.1117H1.6766C1.51555 17.0872 1.38572 17.0185 1.28581 16.9072L0.132013 15.5304C0.0328159 15.4062 -0.0106564 15.2602 0.00224876 15.0927C0.0149574 14.9256 0.0831966 14.7923 0.206964 14.693Z" fill="#1698E8"/>
</g>
<defs>
<clipPath id="clip0">
<rect width="30" height="30" fill="white" transform="matrix(-1 0 0 1 30 0)"/>
</clipPath>
</defs>
</svg>