<svg width="12" height="12" viewBox="0 0 12 12" fill="none" xmlns="http://www.w3.org/2000/svg">
<g clip-path="url(#clip0)">
<path d="M11.8821 4.66907C12.0401 4.51109 12.0401 4.25491 11.8821 4.0969L11.2749 3.48971C11.1376 3.35239 10.922 3.33203 10.7614 3.44116L9.48469 4.30888L10.3471 3.02357C10.4549 2.86305 10.434 2.64873 10.2972 2.51206L8.98016 1.19497C8.85857 1.07338 8.67343 1.0419 8.51855 1.11653L8.29082 1.22618L8.39987 0.984232C8.469 0.830892 8.43604 0.650821 8.31712 0.531871L7.90368 0.118485C7.7457 -0.039495 7.48951 -0.039495 7.3315 0.118485L4.12012 3.32984L8.6707 7.88043L11.8821 4.66907Z" fill="#1D91E3"/>
<path d="M3.52158 3.92773L2.59193 4.85738C2.51606 4.93326 2.47342 5.03616 2.47342 5.14345C2.47342 5.25075 2.51603 5.35368 2.59193 5.42953L3.47378 6.31138C3.64369 6.48128 3.72609 6.71576 3.69987 6.95465C3.67368 7.19339 3.54227 7.40448 3.33935 7.53384C0.748125 9.18561 0.506584 9.42718 0.42723 9.50656C-0.14241 10.0762 -0.14241 11.003 0.42723 11.5727C0.997435 12.1429 1.92433 12.1418 2.49335 11.5727C2.57276 11.4933 2.81438 11.2516 4.46603 8.66055C4.59507 8.45812 4.80608 8.32701 5.04493 8.30076C5.28452 8.27462 5.51897 8.35662 5.68847 8.52609L6.57032 9.40794C6.7283 9.56592 6.98452 9.56592 7.1425 9.40794L8.07217 8.47827L3.52158 3.92773ZM1.88945 10.9192C1.66612 11.1425 1.30404 11.1425 1.08073 10.9192C0.857392 10.6958 0.857392 10.3338 1.08073 10.1105C1.30406 9.88712 1.66615 9.88712 1.88945 10.1105C2.11279 10.3338 2.11279 10.6958 1.88945 10.9192Z" fill="#1D91E3"/>
</g>
<defs>
<clipPath id="clip0">
<rect width="12" height="12" fill="white"/>
</clipPath>
</defs>
</svg>