<svg width="171" height="28" viewBox="0 0 171 28" fill="none" xmlns="http://www.w3.org/2000/svg">
<g clip-path="url(#clip0)">
<path d="M62.929 9.82298C62.8425 9.5546 62.6795 9.31767 62.4601 9.14162C62.2408 8.96558 61.9748 8.85818 61.6952 8.83276L53.9011 8.12395L50.8207 0.874913C50.7104 0.614571 50.5264 0.392561 50.2916 0.236509C50.0567 0.0804566 49.7813 -0.00274658 49.4998 -0.00274658C49.2182 -0.00274658 48.9428 0.0804566 48.708 0.236509C48.4731 0.392561 48.2891 0.614571 48.1788 0.874913L45.1 8.12395L37.3043 8.83276C37.0246 8.85867 36.7585 8.96642 36.5391 9.14268C36.3197 9.31894 36.1565 9.55598 36.0697 9.82448C35.983 10.093 35.9765 10.3811 36.051 10.6533C36.1255 10.9255 36.2778 11.1697 36.489 11.3558L42.381 16.5469L40.6437 24.2356C40.5811 24.511 40.6004 24.7987 40.6992 25.0632C40.7979 25.3277 40.9718 25.5571 41.1992 25.7232C41.4266 25.8892 41.6976 25.9845 41.9784 25.9971C42.2592 26.0098 42.5375 25.9393 42.7788 25.7944L49.4998 21.7566L56.2196 25.7944C56.461 25.9394 56.7394 26.0099 57.0203 25.9973C57.3012 25.9847 57.5722 25.8895 57.7997 25.7234C58.0272 25.5574 58.2012 25.3279 58.3001 25.0634C58.399 24.7989 58.4184 24.5111 58.3559 24.2356L56.6191 16.5469L62.5105 11.3558C62.7219 11.1696 62.8743 10.925 62.9487 10.6525C63.023 10.38 63.0162 10.0916 62.929 9.82298Z" fill="#1698E8"/>
</g>
<g clip-path="url(#clip1)">
<path d="M26.929 9.82298C26.8425 9.5546 26.6795 9.31767 26.4601 9.14162C26.2408 8.96558 25.9748 8.85818 25.6952 8.83276L17.9011 8.12395L14.8207 0.874913C14.7104 0.614571 14.5264 0.392561 14.2916 0.236509C14.0567 0.0804566 13.7813 -0.00274658 13.4998 -0.00274658C13.2182 -0.00274658 12.9428 0.0804566 12.708 0.236509C12.4731 0.392561 12.2891 0.614571 12.1788 0.874913L9.09998 8.12395L1.30433 8.83276C1.02459 8.85867 0.758549 8.96642 0.539119 9.14268C0.319688 9.31894 0.156499 9.55598 0.0697405 9.82448C-0.0170177 10.093 -0.0235374 10.3811 0.0509882 10.6533C0.125514 10.9255 0.277814 11.1697 0.489046 11.3558L6.38096 16.5469L4.64366 24.2356C4.5811 24.511 4.60039 24.7987 4.69916 25.0632C4.79792 25.3277 4.9718 25.5571 5.19921 25.7232C5.42663 25.8892 5.69756 25.9845 5.97837 25.9971C6.25919 26.0098 6.53752 25.9393 6.77883 25.7944L13.4998 21.7566L20.2196 25.7944C20.461 25.9394 20.7394 26.0099 21.0203 25.9973C21.3012 25.9847 21.5722 25.8895 21.7997 25.7234C22.0272 25.5574 22.2012 25.3279 22.3001 25.0634C22.399 24.7989 22.4184 24.5111 22.3559 24.2356L20.6191 16.5469L26.5105 11.3558C26.7219 11.1696 26.8743 10.925 26.9487 10.6525C27.023 10.38 27.0162 10.0916 26.929 9.82298Z" fill="#1698E8"/>
</g>
<g clip-path="url(#clip2)">
<path d="M98.929 9.82298C98.8425 9.5546 98.6795 9.31767 98.4601 9.14162C98.2408 8.96558 97.9748 8.85818 97.6952 8.83276L89.9011 8.12395L86.8207 0.874913C86.7104 0.614571 86.5264 0.392561 86.2916 0.236509C86.0567 0.0804566 85.7813 -0.00274658 85.4998 -0.00274658C85.2182 -0.00274658 84.9428 0.0804566 84.708 0.236509C84.4731 0.392561 84.2891 0.614571 84.1788 0.874913L81.1 8.12395L73.3043 8.83276C73.0246 8.85867 72.7585 8.96642 72.5391 9.14268C72.3197 9.31894 72.1565 9.55598 72.0697 9.82448C71.983 10.093 71.9765 10.3811 72.051 10.6533C72.1255 10.9255 72.2778 11.1697 72.489 11.3558L78.381 16.5469L76.6437 24.2356C76.5811 24.511 76.6004 24.7987 76.6992 25.0632C76.7979 25.3277 76.9718 25.5571 77.1992 25.7232C77.4266 25.8892 77.6976 25.9845 77.9784 25.9971C78.2592 26.0098 78.5375 25.9393 78.7788 25.7944L85.4998 21.7566L92.2196 25.7944C92.461 25.9394 92.7394 26.0099 93.0203 25.9973C93.3012 25.9847 93.5722 25.8895 93.7997 25.7234C94.0272 25.5574 94.2012 25.3279 94.3001 25.0634C94.399 24.7989 94.4184 24.5111 94.3559 24.2356L92.6191 16.5469L98.5105 11.3558C98.7219 11.1696 98.8743 10.925 98.9487 10.6525C99.023 10.38 99.0162 10.0916 98.929 9.82298Z" fill="#1698E8"/>
</g>
<g clip-path="url(#clip3)">
<path d="M128.957 26.454C129.253 26.454 129.546 26.3618 129.797 26.1805C130.264 25.842 130.482 25.2603 130.355 24.6989L128.618 17.0475L134.509 11.8815C134.942 11.5035 135.107 10.9048 134.93 10.3571C134.752 9.81036 134.268 9.42329 133.695 9.37035L125.901 8.66274L122.82 1.45134C122.592 0.92151 122.075 0.579346 121.5 0.579346C120.925 0.579346 120.408 0.92151 120.18 1.4501L117.099 8.66274L109.306 9.37035C108.732 9.42206 108.248 9.81036 108.071 10.3571C107.893 10.9038 108.057 11.5035 108.49 11.8815L114.381 17.0465L112.644 24.6977C112.517 25.2603 112.735 25.842 113.202 26.1794C113.668 26.5169 114.289 26.5428 114.779 26.248L121.5 22.2317L128.221 26.2503C128.448 26.3852 128.701 26.454 128.957 26.454ZM121.5 20.5015C121.245 20.5015 120.992 20.5701 120.764 20.705L114.421 24.4987L116.061 17.277C116.178 16.763 116.003 16.2264 115.606 15.8787L110.044 11.0006L117.403 10.3324C117.933 10.284 118.388 9.95085 118.595 9.46264L121.5 2.65726L124.408 9.46367C124.613 9.94859 125.069 10.2817 125.597 10.3301L132.957 10.9984L127.395 15.8764C126.997 16.2252 126.823 16.7608 126.941 17.276L128.579 24.4975L122.236 20.705C122.009 20.5701 121.756 20.5015 121.5 20.5015ZM125.961 8.8022C125.961 8.8022 125.961 8.80344 125.962 8.80447L125.961 8.8022ZM117.042 8.79891L117.04 8.80117C117.04 8.79994 117.04 8.79994 117.042 8.79891Z" fill="#1698E8"/>
</g>
<g clip-path="url(#clip4)">
<path d="M164.957 27.454C165.253 27.454 165.546 27.3618 165.797 27.1805C166.264 26.842 166.482 26.2603 166.355 25.6989L164.618 18.0475L170.509 12.8815C170.942 12.5035 171.107 11.9048 170.93 11.3571C170.752 10.8104 170.268 10.4233 169.695 10.3703L161.901 9.66274L158.82 2.45134C158.592 1.92151 158.075 1.57935 157.5 1.57935C156.925 1.57935 156.408 1.92151 156.18 2.4501L153.099 9.66274L145.306 10.3703C144.732 10.4221 144.248 10.8104 144.071 11.3571C143.893 11.9038 144.057 12.5035 144.49 12.8815L150.381 18.0465L148.644 25.6977C148.517 26.2603 148.735 26.842 149.202 27.1794C149.668 27.5169 150.289 27.5428 150.779 27.248L157.5 23.2317L164.221 27.2503C164.448 27.3852 164.701 27.454 164.957 27.454ZM157.5 21.5015C157.245 21.5015 156.992 21.5701 156.764 21.705L150.421 25.4987L152.061 18.277C152.178 17.763 152.003 17.2264 151.606 16.8787L146.044 12.0006L153.403 11.3324C153.933 11.284 154.388 10.9509 154.595 10.4626L157.5 3.65726L160.408 10.4637C160.613 10.9486 161.069 11.2817 161.597 11.3301L168.957 11.9984L163.395 16.8764C162.997 17.2252 162.823 17.7608 162.941 18.276L164.579 25.4975L158.236 21.705C158.009 21.5701 157.756 21.5015 157.5 21.5015ZM161.961 9.8022C161.961 9.8022 161.961 9.80344 161.962 9.80447L161.961 9.8022ZM153.042 9.79891L153.04 9.80117C153.04 9.79994 153.04 9.79994 153.042 9.79891Z" fill="#1698E8"/>
</g>
<defs>
<clipPath id="clip0">
<rect width="27" height="26" fill="white" transform="translate(36)"/>
</clipPath>
<clipPath id="clip1">
<rect width="27" height="26" fill="white"/>
</clipPath>
<clipPath id="clip2">
<rect width="27" height="26" fill="white" transform="translate(72)"/>
</clipPath>
<clipPath id="clip3">
<rect width="27" height="27" fill="white" transform="matrix(-1 0 0 1 135 0)"/>
</clipPath>
<clipPath id="clip4">
<rect width="27" height="27" fill="white" transform="matrix(-1 0 0 1 171 1)"/>
</clipPath>
</defs>
</svg>