<svg width="30" height="30" viewBox="0 0 15 14" fill="none" xmlns="http://www.w3.org/2000/svg">
<circle cx="7.3" cy="7.2" r="6.3" fill="#FF3232"/>
<g clip-path="url(#clip0)">
<path d="M7.09559 6.84132L4.517 4.26267C4.34919 4.09494 4.34919 3.82374 4.517 3.65601C4.68473 3.48828 4.95593 3.48828 5.12366 3.65601L7.70233 6.23467L10.2809 3.65601C10.4487 3.48828 10.7198 3.48828 10.8876 3.65601C11.0554 3.82374 11.0554 4.09494 10.8876 4.26267L8.30899 6.84132L10.8876 9.41998C11.0554 9.58771 11.0554 9.85891 10.8876 10.0266C10.804 10.1103 10.6941 10.1523 10.5842 10.1523C10.4744 10.1523 10.3646 10.1103 10.2809 10.0266L7.70233 7.44798L5.12366 10.0266C5.03999 10.1103 4.93016 10.1523 4.82033 10.1523C4.7105 10.1523 4.60067 10.1103 4.517 10.0266C4.34919 9.85891 4.34919 9.58771 4.517 9.41998L7.09559 6.84132Z" fill="white"/>
</g>
<defs>
<clipPath id="clip0">
<rect width="7" height="7" fill="white" transform="matrix(-1 0 0 1 11 3.52429)"/>
</clipPath>
</defs>
</svg>