<svg width="46" height="46" viewBox="0 0 46 46" fill="none" xmlns="http://www.w3.org/2000/svg">
<g clip-path="url(#clip0)">
<path d="M0.120689 17.384C0.267994 16.9092 0.545753 16.49 0.919453 16.1785C1.29316 15.867 1.74632 15.677 2.22265 15.6321L15.5014 14.378L20.7496 1.55278C20.9374 1.09218 21.2509 0.69939 21.6511 0.423298C22.0512 0.147206 22.5203 0 23.0001 0C23.4798 0 23.9489 0.147206 24.349 0.423298C24.7492 0.69939 25.0627 1.09218 25.2505 1.55278L30.496 14.378L43.7775 15.6321C44.2541 15.6779 44.7073 15.8685 45.0812 16.1804C45.455 16.4922 45.733 16.9116 45.8808 17.3866C46.0286 17.8616 46.0398 18.3715 45.9128 18.853C45.7858 19.3346 45.5263 19.7667 45.1665 20.0959L35.1284 29.2802L38.0882 42.8832C38.1948 43.3704 38.1619 43.8795 37.9937 44.3474C37.8254 44.8153 37.5292 45.2213 37.1417 45.5151C36.7543 45.8088 36.2927 45.9774 35.8143 45.9998C35.3359 46.0222 34.8616 45.8975 34.4505 45.6412L23.0001 38.4973L11.5514 45.6412C11.1402 45.8976 10.6659 46.0224 10.1873 46.0001C9.70874 45.9778 9.24699 45.8093 8.85938 45.5156C8.47176 45.2218 8.17533 44.8158 8.00689 44.3478C7.83846 43.8798 7.80542 43.3706 7.91188 42.8832L10.8708 29.2802L0.833645 20.0959C0.473434 19.7664 0.213863 19.3337 0.0871239 18.8516C-0.0396118 18.3695 -0.0279427 17.8592 0.120689 17.384Z" fill="#1698E8"/>
</g>
<defs>
<clipPath id="clip0">
<rect width="46" height="46" fill="white" transform="matrix(-1 0 0 1 46 0)"/>
</clipPath>
</defs>
</svg>