<svg width="132" height="132" viewBox="0 0 132 132" fill="none" xmlns="http://www.w3.org/2000/svg">
<g clip-path="url(#clip0)">
<path d="M66.0135 6.36918e-06C52.9558 -0.00572822 40.1898 3.86108 29.3299 11.1114C18.4701 18.3616 10.0043 28.6697 5.00338 40.7318C0.00245287 52.7938 -1.30899 66.068 1.23492 78.8755C3.77883 91.683 10.0638 103.448 19.295 112.684C28.5261 121.919 40.2887 128.209 53.095 130.758C65.9014 133.308 79.1762 132.002 91.2405 127.007C103.305 122.011 113.616 113.55 120.872 102.693C128.127 91.8366 131.999 79.0722 131.999 66.0145C132.003 57.3467 130.299 48.7631 126.984 40.754C123.67 32.745 118.81 25.4674 112.683 19.337C106.555 13.2066 99.2794 8.34352 91.2718 5.02563C83.2641 1.70773 74.6813 5.53255e-06 66.0135 6.36918e-06ZM66.0135 19.7435C70.3312 19.7435 74.552 21.0238 78.1421 23.4226C81.7322 25.8214 84.5303 29.231 86.1826 33.22C87.8349 37.2091 88.2673 41.5986 87.4249 45.8334C86.5826 50.0681 84.5034 53.958 81.4503 57.0111C78.3972 60.0642 74.5073 62.1434 70.2725 62.9858C66.0377 63.8281 61.6483 63.3958 57.6592 61.7435C53.6701 60.0911 50.2606 57.293 47.8618 53.7029C45.463 50.1129 44.1826 45.8921 44.1826 41.5744C44.1826 35.7844 46.4826 30.2317 50.5767 26.1376C54.6708 22.0435 60.2236 19.7435 66.0135 19.7435ZM66.0135 114.75C54.4522 114.772 43.2641 110.659 34.4703 103.153C33.4497 102.277 32.629 101.192 32.0638 99.972C31.4986 98.7516 31.2021 97.424 31.1943 96.0791C31.198 93.1782 31.7746 90.3066 32.8908 87.6291C34.0071 84.9516 35.6411 82.5209 37.699 80.4764C39.757 78.432 42.1984 76.814 44.8832 75.7153C47.5679 74.6167 50.4432 74.059 53.344 74.0742H78.7409C81.639 74.059 84.5115 74.6171 87.1931 75.7164C89.8746 76.8158 92.3122 78.4347 94.3655 80.4799C96.4188 82.5251 98.0473 84.9563 99.1573 87.6335C100.267 90.3107 100.837 93.181 100.833 96.0791C100.835 97.4256 100.542 98.7563 99.9765 99.9781C99.4106 101.2 98.5848 102.284 97.5567 103.153C88.7553 110.665 77.5558 114.779 65.9845 114.75H66.0135Z" fill="#1698E8"/>
</g>
<defs>
<clipPath id="clip0">
<rect width="132" height="132" fill="white"/>
</clipPath>
</defs>
</svg>