<svg width="30" height="30" viewBox="0 0 30 30" fill="none" xmlns="http://www.w3.org/2000/svg">
<g clip-path="url(#clip0)">
<path d="M15.0031 1.44754e-06C12.0354 -0.00130187 9.13403 0.877518 6.66588 2.52531C4.19773 4.1731 2.2737 6.51584 1.13712 9.25722C0.000546375 11.9986 -0.297509 15.0155 0.280652 17.9263C0.858813 20.837 2.28722 23.511 4.38521 25.6099C6.48319 27.7088 9.15651 29.1384 12.067 29.7178C14.9776 30.2973 17.9946 30.0005 20.7365 28.8652C23.4783 27.7298 25.8219 25.8068 27.4708 23.3394C29.1197 20.8719 29.9998 17.9709 29.9998 15.0033C30.0006 13.0333 29.6134 11.0825 28.8601 9.26228C28.1068 7.44204 27.0023 5.78804 25.6097 4.39476C24.217 3.00149 22.5635 1.89625 20.7436 1.14219C18.9237 0.388121 16.973 1.2574e-06 15.0031 1.44754e-06ZM15.0031 4.48715C15.9844 4.48715 16.9436 4.77814 17.7596 5.32333C18.5755 5.86851 19.2114 6.6434 19.5869 7.55001C19.9625 8.45662 20.0607 9.45422 19.8693 10.4167C19.6778 11.3791 19.2053 12.2632 18.5114 12.9571C17.8175 13.651 16.9335 14.1235 15.971 14.3149C15.0086 14.5064 14.011 14.4081 13.1044 14.0326C12.1977 13.6571 11.4229 13.0211 10.8777 12.2052C10.3325 11.3893 10.0415 10.43 10.0415 9.44872C10.0415 8.13283 10.5642 6.87083 11.4947 5.94036C12.4252 5.00989 13.6872 4.48715 15.0031 4.48715ZM15.0031 26.0795C12.3755 26.0845 9.83275 25.1497 7.83416 23.4439C7.60219 23.2448 7.41567 22.9983 7.28722 22.7209C7.15876 22.4435 7.09137 22.1418 7.08959 21.8362C7.09045 21.1769 7.22149 20.5242 7.47518 19.9157C7.72888 19.3072 8.10024 18.7548 8.56795 18.2901C9.03567 17.8254 9.59053 17.4577 10.2007 17.208C10.8109 16.9583 11.4644 16.8316 12.1236 16.8351H17.8957C18.5543 16.8316 19.2072 16.9584 19.8166 17.2083C20.426 17.4581 20.98 17.8261 21.4467 18.2909C21.9134 18.7557 22.2835 19.3083 22.5357 19.9167C22.788 20.5252 22.9174 21.1775 22.9165 21.8362C22.9169 22.1422 22.8505 22.4446 22.7219 22.7223C22.5933 23 22.4056 23.2463 22.172 23.4439C20.1717 25.1512 17.6263 26.0861 14.9965 26.0795H15.0031Z" fill="#1698E8"/>
</g>
<defs>
<clipPath id="clip0">
<rect width="30" height="30" fill="white"/>
</clipPath>
</defs>
</svg>