<svg width="46" height="50" viewBox="0 0 46 50" fill="none" xmlns="http://www.w3.org/2000/svg">
<g clip-path="url(#clip0)">
<path d="M29.1716 30.7027C27.6721 30.7061 26.1868 30.3862 24.8017 29.7615C23.4167 29.1368 22.1593 28.2197 21.1025 27.0633C20.7002 26.6261 20.328 26.1574 19.9888 25.661L20.3154 23.725C20.3154 23.3597 20.4489 23.0093 20.6866 22.751C20.9242 22.4927 21.2466 22.3476 21.5826 22.3476L24.668 21.6631C25.2198 20.8974 25.7243 20.0929 26.1784 19.2548C25.103 18.4781 24.2835 17.3489 23.8392 16.0311C23.4994 16.0069 23.1778 15.8554 22.9292 15.6024C22.6806 15.3495 22.5203 15.0107 22.4757 14.6437C22.431 14.2767 22.5048 13.9043 22.6844 13.5897C22.8639 13.2752 23.1383 13.0381 23.4606 12.9187C23.7424 9.5402 26.1918 6.89917 29.1716 6.89917C32.1515 6.89917 34.6025 9.5402 34.8827 12.9187C35.2065 13.037 35.4824 13.2739 35.6631 13.589C35.8439 13.904 35.9183 14.2776 35.8735 14.6457C35.8288 15.0138 35.6677 15.3535 35.4179 15.6067C35.1681 15.8599 34.845 16.0109 34.5041 16.0337C34.0598 17.3514 33.2403 18.4807 32.1649 19.2574C32.6171 20.0924 33.1195 20.8941 33.669 21.6571L36.7607 22.3493C36.9271 22.3493 37.0918 22.3849 37.2456 22.4541C37.3993 22.5233 37.539 22.6248 37.6567 22.7527C37.7744 22.8806 37.8677 23.0324 37.9314 23.1996C37.9951 23.3667 38.0279 23.5458 38.0279 23.7267L38.3545 25.6576C37.2942 27.2213 35.9108 28.4925 34.3158 29.3688C32.7208 30.2451 30.9588 30.702 29.1716 30.7027Z" fill="#1698E8"/>
<path d="M13.9361 30.0079C15.1547 31.8887 16.6619 33.5276 18.3918 34.8528C18.5501 34.9729 18.6839 35.1272 18.7848 35.306C18.8857 35.4849 18.9515 35.6845 18.9782 35.8923C19.0024 36.0972 18.9869 36.3054 18.9327 36.5034C18.8784 36.7015 18.7867 36.885 18.6633 37.0421L9.54502 48.7296C9.26255 49.1064 8.90999 49.4141 8.51046 49.6324C8.11093 49.8507 7.67345 49.9748 7.22671 49.9964C6.77998 50.0181 6.33408 49.9368 5.91826 49.758C5.50244 49.5792 5.12608 49.3069 4.81389 48.9589L0.957199 44.7668C0.636589 44.427 0.385786 44.0174 0.221279 43.5647C0.0567703 43.1121 -0.0177135 42.6267 0.00273323 42.1405C0.0231781 41.6543 0.138088 41.1784 0.339903 40.7439C0.541716 40.3095 0.825859 39.9264 1.17365 39.6199L11.9196 29.7136C12.0656 29.5778 12.2364 29.477 12.4207 29.4178C12.605 29.3586 12.7987 29.3423 12.9892 29.3701C13.1797 29.3979 13.3627 29.4691 13.5261 29.579C13.6895 29.6889 13.8298 29.8351 13.9377 30.0079H13.9361Z" fill="#1698E8"/>
<path d="M29.1715 36.5844C19.8777 36.5844 12.343 28.3943 12.343 18.2922C12.343 8.19003 19.8777 0 29.1715 0C38.4653 0 46 8.19089 46 18.2922C46 28.3935 38.4645 36.5844 29.1715 36.5844ZM29.1715 4.57369C22.2113 4.57369 16.5499 10.7275 16.5499 18.2922C16.5477 21.6287 17.6693 24.8506 19.7029 27.3497C20.8752 28.7966 22.3134 29.9603 23.9248 30.7659C25.5709 31.5867 27.3605 32.0116 29.1715 32.0116C30.9825 32.0116 32.7721 31.5867 34.4181 30.7659C36.615 29.6694 38.477 27.912 39.784 25.7015C41.0909 23.4909 41.7881 20.9198 41.7931 18.2922C41.7931 10.7275 36.1316 4.57369 29.1715 4.57369Z" fill="#1698E8"/>
</g>
<defs>
<clipPath id="clip0">
<rect width="46" height="50" fill="white" transform="matrix(-1 0 0 1 46 0)"/>
</clipPath>
</defs>
</svg>