<svg width="15" height="16" viewBox="0 0 15 16" fill="none" xmlns="http://www.w3.org/2000/svg">
<path d="M10.3118 0C9.51207 0.0589997 8.57739 0.604996 8.0327 1.31599C7.53583 1.96099 7.12708 2.91898 7.28646 3.84998C8.1602 3.87898 9.06301 3.31998 9.58613 2.59698C10.0755 1.92399 10.4458 0.971994 10.3118 0Z" fill="#169CEF"/>
<path d="M13.4721 5.36799C12.7043 4.34099 11.6252 3.745 10.6062 3.745C9.26085 3.745 8.69179 4.43199 7.75711 4.43199C6.79336 4.43199 6.06118 3.747 4.89775 3.747C3.75495 3.747 2.53808 4.49199 1.76652 5.76598C0.681839 7.55997 0.867462 10.933 2.62526 13.8059C3.25432 14.8339 4.09432 15.9899 5.19306 15.9999C6.17087 16.0099 6.44649 15.3309 7.77117 15.3239C9.09585 15.3159 9.3471 16.0089 10.323 15.9979C11.4227 15.9889 12.3086 14.7079 12.9377 13.6799C13.3886 12.9429 13.5564 12.5719 13.9061 11.74C11.3627 10.707 10.9549 6.84898 13.4721 5.36799Z" fill="#169CEF"/>
</svg>
