<svg width="28" height="29" viewBox="0 0 28 29" fill="none" xmlns="http://www.w3.org/2000/svg">
<path d="M14.0062 0.931398C11.237 0.930188 8.52959 1.74591 6.2265 3.27539C3.9234 4.80487 2.12803 6.97941 1.06746 9.52396C0.00688864 12.0685 -0.271235 14.8688 0.268263 17.5706C0.807761 20.2724 2.14065 22.7543 4.09834 24.7025C6.05603 26.6508 8.55057 27.9777 11.2665 28.5155C13.9824 29.0534 16.7976 28.7779 19.3561 27.7241C21.9147 26.6702 24.1015 24.8853 25.6401 22.595C27.1788 20.3048 28 17.6121 28 14.8575C28.0008 13.029 27.6394 11.2182 26.9365 9.52866C26.2337 7.83911 25.203 6.30386 23.9035 5.01062C22.6039 3.71739 21.061 2.6915 19.3628 1.99158C17.6646 1.29165 15.8444 0.931398 14.0062 0.931398ZM14.0062 5.09638C14.9218 5.09638 15.817 5.36648 16.5783 5.87252C17.3397 6.37856 17.9331 7.09781 18.2835 7.93933C18.6339 8.78084 18.7256 9.70682 18.547 10.6002C18.3683 11.4935 17.9274 12.3141 17.2799 12.9582C16.6324 13.6022 15.8075 14.0409 14.9094 14.2186C14.0113 14.3962 13.0804 14.305 12.2344 13.9565C11.3884 13.6079 10.6654 13.0176 10.1566 12.2603C9.64791 11.503 9.37638 10.6126 9.37638 9.70171C9.37638 8.4803 9.86415 7.30892 10.7324 6.44525C11.6007 5.58158 12.7783 5.09638 14.0062 5.09638ZM14.0062 25.1384C11.5543 25.1431 9.18159 24.2754 7.31665 22.692C7.10019 22.5073 6.92615 22.2784 6.80628 22.021C6.68642 21.7635 6.62353 21.4835 6.62188 21.1997C6.62268 20.5878 6.74495 19.982 6.98168 19.4172C7.21841 18.8524 7.56493 18.3396 8.00137 17.9083C8.43781 17.477 8.95557 17.1357 9.52494 16.9039C10.0943 16.6721 10.7041 16.5545 11.3193 16.5577H16.7053C17.3199 16.5545 17.9291 16.6722 18.4978 16.9041C19.0665 17.1361 19.5834 17.4776 20.0189 17.909C20.4543 18.3405 20.7997 18.8533 21.0351 19.4181C21.2705 19.9829 21.3912 20.5884 21.3904 21.1997C21.3908 21.4838 21.3288 21.7645 21.2088 22.0223C21.0888 22.28 20.9137 22.5086 20.6957 22.692C18.8291 24.2768 16.454 25.1446 14 25.1384H14.0062Z" fill="white"/>
</svg>
