<svg width="43" height="43" viewBox="0 0 43 43" fill="none" xmlns="http://www.w3.org/2000/svg">
<rect width="42.6249" height="42.6249" fill="#45D29F"/>
<g clip-path="url(#clip0)">
<path d="M32.3162 20.4294L24.1064 12.2194C23.872 11.9851 23.5597 11.8564 23.2266 11.8564C22.8932 11.8564 22.5811 11.9853 22.3467 12.2194L21.6013 12.965C21.3672 13.199 21.2382 13.5115 21.2382 13.8448C21.2382 14.1778 21.3672 14.5009 21.6013 14.7349L26.3908 19.5349H11.1744C10.4884 19.5349 9.94629 20.072 9.94629 20.7582V21.8122C9.94629 22.4985 10.4884 23.0897 11.1744 23.0897H26.4451L21.6015 27.9165C21.3673 28.1509 21.2383 28.4549 21.2383 28.7882C21.2383 29.121 21.3673 29.4295 21.6015 29.6637L22.3469 30.4068C22.5813 30.6412 22.8934 30.7689 23.2268 30.7689C23.5599 30.7689 23.8722 30.6395 24.1066 30.4052L32.3164 22.1954C32.5513 21.9603 32.6805 21.6465 32.6795 21.3129C32.6803 20.9781 32.5513 20.6641 32.3162 20.4294Z" fill="white"/>
</g>
<defs>
<clipPath id="clip0">
<rect width="22.7333" height="22.7333" fill="white" transform="translate(9.94629 9.9458)"/>
</clipPath>
</defs>
</svg>